<?xml version="1.0" encoding="UTF-8" standalone="no"?>
<!DOCTYPE svg PUBLIC "-//W3C//DTD SVG 20010904//EN" "http://www.w3.org/TR/2001/REC-SVG-20010904/DTD/svg10.dtd">
<svg version="1.0" xmlns="http://www.w3.org/2000/svg" width="260.000000pt" height="260.000000pt" viewBox="0 0 260.000000 260.000000" preserveAspectRatio="xMidYMid meet">
<metadata>
Created by potrace 1.11, written by Peter Selinger 2001-2013
</metadata>
<g transform="translate(0.000000,260.000000) scale(0.100000,-0.100000)" fill="#000000" stroke="none">
<path d="M1014 2285 c-196 -35 -366 -116 -499 -237 l-50 -45 210 -6 c141 -3 227 -10 261 -20 164 -47 266 -163 296 -335 28 -167 -54 -342 -195 -414 l-46 -23 130 -305 c71 -168 129 -308 129 -312 0 -5 -82 -8 -182 -8 l-183 0 -110 280 -109 280 -123 0 -123 0 0 -239 0 -239 71 -67 c175 -164 392 -258 634 -272 224 -13 462 55 642 183 123 87 264 256 324 389 25 57 79 223 79 246 0 4 -19 1 -42 -8 -34 -13 -92 -17 -265 -21 l-223 -4 0 -264 0 -264 -170 0 -170 0 0 710 0 710 297 0 296 0 -24 26 c-39 42 -130 110 -201 148 -196 108 -442 150 -654 111z"/>
<path d="M420 1570 l0 -180 103 -2 c243 -5 301 10 345 92 29 56 28 144 -4 187 -53 70 -96 82 -296 83 l-148 0 0 -180z"/>
<path d="M1640 1549 l0 -192 148 5 c163 6 211 20 250 75 47 66 49 144 6 219 -38 67 -73 78 -251 82 l-153 4 0 -193z"/>
</g>
</svg>